<?xml version="1.0" encoding="UTF-8"?>
<svg id="Layer_1" data-name="Layer 1" xmlns="http://www.w3.org/2000/svg" xmlns:xlink="http://www.w3.org/1999/xlink" viewBox="0 0 493.599 88.697">
  <defs>
    <style>
      .cls-1 {
        fill: url(#linear-gradient);
      }

      .cls-1, .cls-2, .cls-3, .cls-4 {
        stroke-width: 0px;
      }

      .cls-2 {
        fill: url(#linear-gradient-2);
      }

      .cls-3 {
        fill: url(#linear-gradient-3);
      }

      .cls-4 {
        fill: #231f20;
      }
    </style>
    <linearGradient id="linear-gradient" x1="153.445" y1="5.722" x2="153.445" y2="88.697" gradientUnits="userSpaceOnUse">
      <stop offset="0" stop-color="#20428b"/>
      <stop offset="1" stop-color="#1f2756"/>
    </linearGradient>
    <linearGradient id="linear-gradient-2" x1="111.779" y1="2.053" x2="111.779" y2="65.278" xlink:href="#linear-gradient"/>
    <linearGradient id="linear-gradient-3" x1="45.162" y1="0" x2="45.162" y2="78.03" xlink:href="#linear-gradient"/>
  </defs>
  <path class="cls-1" d="M134.102,69.937l7.836,1.422c.328,2.954,1.238,5.105,2.731,6.455,1.999,1.822,4.731,2.734,8.194,2.734,3.731,0,6.611-.912,8.641-2.734,2.03-1.824,3.403-4.376,4.119-7.658.418-2.005.611-6.216.582-12.634-3.522,5.068-7.91,7.602-13.164,7.602-6.537,0-11.597-2.879-15.178-8.641-3.582-5.762-5.373-12.671-5.373-20.731,0-5.542.82-10.656,2.462-15.342,1.642-4.685,4.022-8.304,7.142-10.857,3.119-2.552,6.783-3.829,10.992-3.829,5.611,0,10.238,2.772,13.88,8.314v-7.001h7.432v50.212c0,9.043-.754,15.453-2.261,19.226-1.507,3.775-3.895,6.755-7.164,8.943-3.268,2.189-7.291,3.282-12.066,3.282-5.672,0-10.253-1.559-13.746-4.677-3.493-3.118-5.18-7.812-5.06-14.084ZM140.773,35.039c0,7.622,1.238,13.182,3.717,16.683,2.477,3.5,5.581,5.25,9.313,5.25,3.701,0,6.806-1.741,9.313-5.223s3.761-8.943,3.761-16.382c0-7.111-1.292-12.47-3.873-16.081-2.582-3.61-5.694-5.415-9.336-5.415-3.582,0-6.626,1.778-9.134,5.333s-3.761,8.834-3.761,15.835Z"/>
  <path class="cls-2" d="M126.019,39.041c0,3.951.88-1.365-.736,5.524-.749,3.191-1.395,6.121-2.458,8.683l6.71,11.397h-7.673l-2.923-4.929c-1.573,1.808-3.328,3.188-5.265,4.138-1.938.95-4.036,1.425-6.295,1.425-2.148,0-4.053-.407-5.714-1.221-1.661-.814-3.056-1.952-4.186-3.415-1.129-1.461-1.988-3.203-2.574-5.223-.587-2.02-.88-4.252-.88-6.694,0-2.29.221-4.333.664-6.128.443-1.794,1.041-3.392,1.794-4.794.753-1.402,1.622-2.638,2.608-3.709.985-1.07,2.021-2.058,3.106-2.962l-.731-1.402c-1.24-2.08-2.165-4.19-2.774-6.332-.609-2.14-.913-4.235-.913-6.286,0-2.17.254-4.176.764-6.015.509-1.839,1.257-3.429,2.242-4.771.985-1.341,2.203-2.389,3.654-3.143,1.45-.753,3.106-1.131,4.966-1.131,1.794,0,3.366.347,4.717,1.041,1.351.694,2.48,1.644,3.388,2.849.908,1.207,1.589,2.6,2.043,4.184.454,1.583.681,3.264.681,5.043,0,2.261-.282,4.244-.847,5.947-.565,1.703-1.307,3.211-2.226,4.523-.919,1.312-1.971,2.48-3.156,3.504-1.185,1.026-2.398,2.021-3.637,2.985l8.57,14.562c.864-3.154,1.319-6.89,1.365-11.207.01-.942-.14,1.523.315,1.523l5.402,2.034ZM100.036,47.776c0,1.598.188,3.061.565,4.387.377,1.327.914,2.465,1.611,3.414.697.95,1.55,1.681,2.558,2.194,1.007.513,2.143.769,3.405.769,2.878,0,5.403-1.447,7.574-4.342l-10.564-18c-.753.694-1.445,1.432-2.076,2.217-.631.784-1.174,1.643-1.628,2.578-.454.935-.809,1.96-1.063,3.075-.255,1.116-.382,2.352-.382,3.709ZM114.387,15.937c0-2.261-.465-4.033-1.395-5.314-.93-1.281-2.193-1.922-3.787-1.922-.886,0-1.667.197-2.342.588-.676.393-1.246.935-1.711,1.628-.465.694-.814,1.508-1.047,2.442-.232.935-.349,1.945-.349,3.03,0,1.628.221,3.143.664,4.545.443,1.402,1.151,2.947,2.126,4.636l.897,1.583c.952-.724,1.849-1.455,2.691-2.194.841-.738,1.578-1.552,2.209-2.442.631-.889,1.129-1.869,1.495-2.939s.548-2.284.548-3.641Z"/>
  <path class="cls-3" d="M28.12,9.489c1.742-.608,3.803-1.328,6.041-2.11.087-1.925.168-3.717.254-5.633,1.961-1.469,4.303-.547,6.528-1.747,1.033,1.903,2.015,3.712,3.048,5.615h5.961c1.045-1.599,2.167-3.314,3.437-5.256,1.85.33,3.883.693,6.068,1.082v5.966c1.711.722,3.249,1.523,4.855,1.983.731.209,1.693-.033,2.379-.464,1.401-.881,2.686-2.028,3.998-3.05,1.768,1.187,3.438,2.308,5.212,3.499-.171,2.277-2.578,2.832-2.793,5.359.169,2.641,2.977,2.3,3.754,4.44,2.414-.694,4.604-1.323,6.967-2.003.921,1.722,1.815,3.394,2.807,5.251-.949.706-1.85,1.385-2.759,2.049-.835.61-1.678,1.204-2.558,1.833.628,1.96,1.162,3.628,1.719,5.367,2.358.264,4.6.515,7.056.79.078,1.928.151,3.715.229,5.652-2.393.753-4.704,1.48-6.983,2.197-.261,2.032-.475,3.692-.69,5.359,2.09,1.079,3.988,2.058,5.832,3.01-.8,1.811-1.57,3.552-2.455,5.556-2.324-.195-4.723-.397-7.066-.594-1.083,1.698-2.037,3.195-3.116,4.886,1.244,1.704,2.384,3.264,3.524,4.825-1.407,1.33-2.962,2.801-4.601,4.351-1.989-1.017-3.97-2.03-5.849-2.991-1.857,1.079-3.506,2.037-5.33,3.096.278,1.806.548,3.561.835,5.431-1.704,1.847-3.951,1.973-5.796,2.685-1.417-1.628-2.736-3.145-4.13-4.747-2.128.395-4.173.775-6.107,1.134-.802,2.141-1.508,4.023-2.142,5.717h-6.621c-.376-1.937-.715-3.684-1.111-5.723-2.172-.42-4.365-.845-6.552-1.268-1.273,1.694-2.397,3.189-3.503,4.661-2.515-.23-4.521-1.446-6.694-2.419.509-1.934.981-3.729,1.506-5.724-1.366-.974-2.559-1.888-3.802-2.689-.769-.496-1.55-.438-2.405.04-1.506.842-3.092,1.478-4.624,2.191-1.529-1.507-2.934-2.894-4.478-4.416,1.48-1.52,2.845-2.922,4.395-4.514-.916-1.747-1.748-3.335-2.708-5.164-2.303.194-4.622.39-7.087.598-.552-1.907-1.066-3.687-1.645-5.69,1.929-.909,3.781-1.782,5.889-2.776-.042-.952-.058-1.918-.133-2.878-.07-.896-.203-1.785-.33-2.856-2.104-.636-4.202-1.27-6.347-1.918.395-1.71.781-3.383,1.251-5.416,1.793-1.463,4.205-.258,6.485-1.044.801-1.668,1.645-3.427,2.494-5.196-1.672-1.405-3.102-2.607-4.734-3.978,1.17-1.8,2.279-3.506,3.411-5.249,2.255.665,4.362,1.287,6.483,1.912,1.462-1.238,2.879-2.438,4.513-3.822.325-2.279-2.49-3.23-2.188-5.816,1.608-.98,3.3-2.01,5.284-3.219,1.971-.009,2.915,2.701,5.119,3.834ZM45.765,62.297c1.725-.084,5.054-.375,8.298-1.648,3.849-1.511,7.478-3.328,10.646-6.557,2.938-2.994,5.325-6.3,6.471-10.741.37-1.434.631-2.952.697-4.447.151-3.385-.436-6.644-1.9-9.552-.816-1.621-1.9-3.054-2.916-4.518-.482-.694-1.013-1.417-1.651-1.86-2.315-1.605-4.453-3.565-7.043-4.624-4.006-1.637-8.143-2.324-12.311-2.887-.083-.011-.169-.001-.252.008-6.237.701-12.34,2.104-17.729,6.165-2.754,2.076-5.397,4.495-6.98,8.084-.778,1.765-1.316,3.681-2.037,5.486-1.303,3.263-1.235,6.539-.155,9.833.272.831.727,1.574,1.001,2.404,1.469,4.451,4.319,7.456,7.592,9.748,5.099,3.57,10.698,5.25,18.269,5.105Z"/>
  <g>
    <path class="cls-4" d="M238.113,34.85c-.224-6.784-4.714-9.828-10.102-9.828-4.19,0-9.129,1.914-9.129,7.741,0,4.783,4.714,6.609,8.007,7.566l6.286,1.652c5.388.957,11,4.61,11,12.438,0,9.741-8.306,13.481-15.489,13.481-9.055,0-15.041-4.784-15.864-15.829h4.714c.374,7.393,5.088,11.22,11.374,11.22,4.489,0,10.551-2.262,10.551-8.524,0-5.218-4.19-6.957-8.456-8.175l-6.061-1.565c-6.136-1.827-10.775-4.437-10.775-12.003,0-9.132,7.708-12.611,14.517-12.611,7.782,0,13.769,4.696,14.143,14.438h-4.714Z"/>
    <path class="cls-4" d="M285.556,44.156c0,12.872-6.51,23.744-18.258,23.744s-18.259-10.872-18.259-23.744,6.511-23.744,18.259-23.744,18.258,10.872,18.258,23.744ZM253.754,44.156c0,9.48,4.565,19.135,13.544,19.135s13.544-9.654,13.544-19.135-4.564-19.135-13.544-19.135-13.544,9.654-13.544,19.135Z"/>
    <path class="cls-4" d="M292.67,4.496h4.715v62.1h-4.715V4.496Z"/>
    <path class="cls-4" d="M337.719,66.596h-4.34v-8.089h-.15c-2.469,6.002-7.558,9.394-13.319,9.394-9.803,0-13.544-6.523-13.544-17.047v-29.137h4.714v29.224c.225,8.089,2.844,12.351,10.327,12.351,8.081,0,11.598-8.872,11.598-18.004v-23.57h4.715v44.879Z"/>
    <path class="cls-4" d="M354.108,21.717h7.857v4.609h-7.857v30.268c0,3.565.449,5.653,3.816,5.914,1.347,0,2.693-.087,4.041-.261v4.696c-1.422,0-2.769.174-4.19.174-6.286,0-8.456-2.435-8.381-10.089v-30.702h-6.735v-4.609h6.735v-13.481h4.714v13.481Z"/>
    <path class="cls-4" d="M368.851,4.496h4.715v8.784h-4.715V4.496ZM368.851,21.717h4.715v44.879h-4.715V21.717Z"/>
    <path class="cls-4" d="M417.192,44.156c0,12.872-6.51,23.744-18.258,23.744s-18.259-10.872-18.259-23.744,6.511-23.744,18.259-23.744,18.258,10.872,18.258,23.744ZM385.39,44.156c0,9.48,4.564,19.135,13.544,19.135s13.544-9.654,13.544-19.135-4.564-19.135-13.544-19.135-13.544,9.654-13.544,19.135Z"/>
    <path class="cls-4" d="M424.155,21.717h4.714v7.741h.15c1.795-5.393,6.884-9.045,12.347-9.045,10.85,0,14.143,6.61,14.143,17.308v28.876h-4.715v-28.006c0-7.654-2.17-13.568-9.802-13.568-7.559,0-11.898,6.61-12.123,15.395v26.18h-4.714V21.717Z"/>
    <path class="cls-4" d="M487.539,34.85c-.225-6.784-4.715-9.828-10.103-9.828-4.19,0-9.129,1.914-9.129,7.741,0,4.783,4.714,6.609,8.007,7.566l6.285,1.652c5.388.957,11,4.61,11,12.438,0,9.741-8.306,13.481-15.489,13.481-9.055,0-15.041-4.784-15.864-15.829h4.715c.374,7.393,5.088,11.22,11.374,11.22,4.489,0,10.551-2.262,10.551-8.524,0-5.218-4.19-6.957-8.456-8.175l-6.061-1.565c-6.137-1.827-10.775-4.437-10.775-12.003,0-9.132,7.707-12.611,14.517-12.611,7.782,0,13.769,4.696,14.143,14.438h-4.714Z"/>
  </g>
</svg>